<svg width="355" height="178" viewBox="0 0 355 178" fill="none" xmlns="http://www.w3.org/2000/svg">
<ellipse cx="118.97" cy="141.457" rx="30" ry="10" transform="rotate(-20 118.97 141.457)" fill="black"/>
<path d="M135.117 131.862C135.478 131.392 136.04 131.122 136.633 131.133L141.354 131.227C143.949 131.278 144.548 134.884 142.109 135.772C141.687 135.925 141.229 135.954 140.791 135.855L136.185 134.815C134.859 134.515 134.29 132.941 135.117 131.862Z" fill="white"/>
<path d="M126.655 127.486C126.802 127.891 126.786 128.415 126.489 129.087C126.189 129.765 125.626 130.531 124.793 131.329C123.129 132.921 120.532 134.504 117.387 135.648C114.243 136.793 111.236 137.25 108.938 137.099C107.788 137.024 106.864 136.799 106.198 136.473C105.538 136.149 105.189 135.757 105.042 135.353C104.895 134.948 104.91 134.423 105.207 133.752C105.508 133.074 106.071 132.308 106.904 131.51C108.567 129.918 111.164 128.335 114.309 127.191C117.454 126.046 120.461 125.589 122.759 125.74C123.909 125.815 124.833 126.04 125.499 126.366C126.158 126.69 126.508 127.082 126.655 127.486Z" fill="#FFE333" stroke="black" stroke-width="2"/>
<path d="M123.919 119.969C124.066 120.373 124.05 120.898 123.753 121.57C123.453 122.248 122.889 123.014 122.057 123.811C120.393 125.403 117.796 126.986 114.651 128.131C111.506 129.275 108.5 129.732 106.202 129.582C105.051 129.506 104.127 129.282 103.462 128.955C102.802 128.632 102.453 128.24 102.306 127.835C102.158 127.431 102.174 126.906 102.471 126.234C102.771 125.556 103.335 124.79 104.168 123.993C105.831 122.4 108.428 120.818 111.573 119.673C114.718 118.529 117.725 118.072 120.022 118.222C121.173 118.298 122.097 118.522 122.763 118.849C123.422 119.172 123.771 119.564 123.919 119.969Z" fill="#FFE333" stroke="black" stroke-width="2"/>
<path d="M126.063 36.7145C131.17 51.375 134.112 69.7862 132.668 85.7895C131.17 102.392 125.032 115.839 112.385 120.442C99.7381 125.045 86.3926 118.69 74.5729 106.934C63.1798 95.6035 53.5992 79.6084 48.088 65.095L70.6308 56.8901L87.0754 50.9047L126.063 36.7145Z" fill="#FFE333" stroke="black" stroke-width="3"/>
<g filter="url(#filter0_f)">
<path d="M105.016 47.5675C108.677 54.2161 127.125 127.315 74.7886 104.861C125.679 149.657 140.14 82.6712 124.749 40.385L105.016 47.5675Z" fill="#FEBD01"/>
</g>
<path d="M129.865 48.1006L132.26 54.6784C143.034 50.7568 153.176 66.7529 133.375 72.3633L133.719 79.1554C165.436 69.7396 147.273 41.7647 129.865 48.1006Z" fill="#FFE333" stroke="black" stroke-width="3" stroke-linecap="round"/>
<path d="M52.4941 76.2614L54.8882 82.8393C44.1136 86.7609 46.627 105.533 65.401 97.104L69.5036 102.528C39.1544 115.702 35.0864 82.5973 52.4941 76.2614Z" fill="#FFE333" stroke="black" stroke-width="3" stroke-linecap="round"/>
<path d="M123.901 61.4452C128.69 74.6009 123.957 103.992 113.877 111.385" stroke="white" stroke-width="5" stroke-linecap="round"/>
<path d="M90.8377 61.2413L97.9946 70.4017L108.918 66.4258L102.418 76.0631L109.575 85.2235L98.4003 82.0193L91.8998 91.6566L91.4942 80.039L80.3198 76.8348L91.2434 72.8589L90.8377 61.2413Z" fill="white"/>
<path d="M13.5 50.4842L40 64.6883L35.5 70.4842L8.99997 64.6883L13.5 50.4842Z" fill="white"/>
<path d="M36 37L46 53L42 56.5L28 47.5L36 37Z" fill="white"/>
<g filter="url(#filter1_d)">
<path d="M176.376 79.416C176.376 76.6427 175.864 74.3813 174.84 72.632C173.901 71.096 172.216 69.496 169.784 67.832C173.496 65.656 175.352 62.3707 175.352 57.976C175.352 54.8187 174.285 52.2373 172.152 50.232C170.019 48.2267 167.373 47.224 164.216 47.224H141.624L138.616 60.024H141.624V91H163.704C167.245 91 170.189 89.9547 172.536 87.864C175.096 85.688 176.376 82.872 176.376 79.416ZM161.912 61.56C161.912 63.2667 160.547 64.12 157.816 64.12H154.808V59H157.304C160.376 59 161.912 59.8533 161.912 61.56ZM161.528 75.704C161.528 77.752 160.291 78.776 157.816 78.776H154.808V72.888H156.984C160.013 72.888 161.528 73.8267 161.528 75.704ZM216.78 91L209.164 76.856C213.942 73.7413 216.332 69.1333 216.332 63.032C216.332 58.3813 214.838 54.584 211.852 51.64C208.908 48.696 205.11 47.224 200.46 47.224H180.812L177.803 60.088H180.812V91H194.508V78.072L200.396 91H216.78ZM202.444 63.672C202.444 66.0187 200.886 67.192 197.772 67.192H194.508V59.96H197.772C200.886 59.96 202.444 61.1973 202.444 63.672ZM260.313 91L247.897 47.224H226.137L221.849 59H224.921L216.345 91H230.361L232.153 84.92H244.569L245.785 91H260.313ZM241.817 73.4H234.969L238.361 60.408L241.817 73.4ZM308.774 47.224H295.334L292.069 65.848L287.014 47.224H275.622L270.694 66.168L267.11 47.224H253.669L262.502 91H276.902L281.574 72.44L286.182 91H300.518L308.774 47.224ZM333.474 77.368H324.258V47.224H310.562L307.553 60.344H310.562V91H330.338L333.474 77.368Z" fill="#FFFF00"/>
<path d="M174.84 72.632L176.566 71.6216L176.556 71.6053L176.547 71.5891L174.84 72.632ZM169.784 67.832L168.773 66.1066L166.052 67.7016L168.655 69.4826L169.784 67.832ZM172.152 50.232L170.782 51.6893V51.6893L172.152 50.232ZM141.624 47.224V45.224H140.04L139.677 46.7665L141.624 47.224ZM138.616 60.024L136.669 59.5665L136.092 62.024H138.616V60.024ZM141.624 60.024H143.624V58.024H141.624V60.024ZM141.624 91H139.624V93H141.624V91ZM172.536 87.864L171.241 86.3401L171.223 86.3552L171.206 86.3707L172.536 87.864ZM154.808 64.12H152.808V66.12H154.808V64.12ZM154.808 59V57H152.808V59H154.808ZM154.808 78.776H152.808V80.776H154.808V78.776ZM154.808 72.888V70.888H152.808V72.888H154.808ZM178.376 79.416C178.376 76.413 177.824 73.7701 176.566 71.6216L173.114 73.6424C173.904 74.9926 174.376 76.8724 174.376 79.416H178.376ZM176.547 71.5891C175.396 69.7063 173.448 67.9157 170.913 66.1814L168.655 69.4826C170.984 71.0763 172.407 72.4857 173.133 73.6749L176.547 71.5891ZM170.795 69.5574C175.136 67.0131 177.352 63.0618 177.352 57.976H173.352C173.352 61.6796 171.856 64.2989 168.773 66.1066L170.795 69.5574ZM177.352 57.976C177.352 54.315 176.091 51.1899 173.522 48.7747L170.782 51.6893C172.48 53.2848 173.352 55.3223 173.352 57.976H177.352ZM173.522 48.7747C170.987 46.392 167.839 45.224 164.216 45.224V49.224C166.908 49.224 169.05 50.0614 170.782 51.6893L173.522 48.7747ZM164.216 45.224H141.624V49.224H164.216V45.224ZM139.677 46.7665L136.669 59.5665L140.563 60.4815L143.571 47.6815L139.677 46.7665ZM138.616 62.024H141.624V58.024H138.616V62.024ZM139.624 60.024V91H143.624V60.024H139.624ZM141.624 93H163.704V89H141.624V93ZM163.704 93C167.669 93 171.107 91.8161 173.866 89.3573L171.206 86.3707C169.272 88.0932 166.821 89 163.704 89V93ZM173.831 89.3879C176.853 86.8196 178.376 83.4394 178.376 79.416H174.376C174.376 82.3046 173.339 84.5564 171.241 86.3401L173.831 89.3879ZM159.912 61.56C159.912 61.7163 159.882 61.7556 159.891 61.7388C159.903 61.7169 159.906 61.7354 159.828 61.784C159.615 61.9174 159.038 62.12 157.816 62.12V66.12C159.325 66.12 160.796 65.8959 161.948 65.176C163.257 64.3582 163.912 63.053 163.912 61.56H159.912ZM157.816 62.12H154.808V66.12H157.816V62.12ZM156.808 64.12V59H152.808V64.12H156.808ZM154.808 61H157.304V57H154.808V61ZM157.304 61C158.72 61 159.464 61.2081 159.789 61.3883C159.921 61.4616 159.927 61.4993 159.909 61.469C159.889 61.4357 159.912 61.4429 159.912 61.56H163.912C163.912 60.8238 163.743 60.0843 163.339 59.411C162.937 58.7407 162.367 58.245 161.731 57.8917C160.52 57.2186 158.96 57 157.304 57V61ZM159.528 75.704C159.528 76.3096 159.363 76.4354 159.325 76.4672C159.214 76.559 158.827 76.776 157.816 76.776V80.776C159.279 80.776 160.749 80.481 161.875 79.5488C163.074 78.5566 163.528 77.1464 163.528 75.704H159.528ZM157.816 76.776H154.808V80.776H157.816V76.776ZM156.808 78.776V72.888H152.808V78.776H156.808ZM154.808 74.888H156.984V70.888H154.808V74.888ZM156.984 74.888C158.357 74.888 159.049 75.1124 159.338 75.292C159.454 75.3638 159.478 75.4102 159.483 75.4194C159.49 75.4333 159.528 75.5076 159.528 75.704H163.528C163.528 74.1179 162.828 72.749 161.446 71.892C160.221 71.1329 158.64 70.888 156.984 70.888V74.888ZM216.78 91V93H220.128L218.54 90.0518L216.78 91ZM209.163 76.856L208.071 75.1805L206.531 76.1848L207.403 77.8042L209.163 76.856ZM211.852 51.64L210.437 53.0542L210.442 53.0593L210.447 53.0644L211.852 51.64ZM180.812 47.224V45.224H179.225L178.864 46.7686L180.812 47.224ZM177.804 60.088L175.856 59.6326L175.282 62.088H177.804V60.088ZM180.812 60.088H182.812V58.088H180.812V60.088ZM180.812 91H178.812V93H180.812V91ZM194.507 91V93H196.507V91H194.507ZM194.507 78.072L196.328 77.243L192.507 78.072H194.507ZM200.396 91L198.575 91.829L199.109 93H200.396V91ZM194.507 67.192H192.507V69.192H194.507V67.192ZM194.507 59.96V57.96H192.507V59.96H194.507ZM218.54 90.0518L210.924 75.9078L207.403 77.8042L215.019 91.9482L218.54 90.0518ZM210.256 78.5315C215.646 75.018 218.331 69.7532 218.331 63.032H214.331C214.331 68.5135 212.238 72.4647 208.071 75.1805L210.256 78.5315ZM218.331 63.032C218.331 57.91 216.667 53.5782 213.256 50.2156L210.447 53.0644C213.01 55.5898 214.331 58.8527 214.331 63.032H218.331ZM213.266 50.2258C209.901 46.8613 205.573 45.224 200.46 45.224V49.224C204.648 49.224 207.914 50.5307 210.437 53.0542L213.266 50.2258ZM200.46 45.224H180.812V49.224H200.46V45.224ZM178.864 46.7686L175.856 59.6326L179.751 60.5434L182.759 47.6794L178.864 46.7686ZM177.804 62.088H180.812V58.088H177.804V62.088ZM178.812 60.088V91H182.812V60.088H178.812ZM180.812 93H194.507V89H180.812V93ZM196.507 91V78.072H192.507V91H196.507ZM192.687 78.901L198.575 91.829L202.216 90.171L196.328 77.243L192.687 78.901ZM200.396 93H216.78V89H200.396V93ZM200.444 63.672C200.444 64.3608 200.245 64.5845 200.072 64.7146C199.793 64.9251 199.135 65.192 197.771 65.192V69.192C199.523 69.192 201.201 68.8722 202.479 67.9094C203.864 66.8661 204.443 65.3299 204.443 63.672H200.444ZM197.771 65.192H194.507V69.192H197.771V65.192ZM196.507 67.192V59.96H192.507V67.192H196.507ZM194.507 61.96H197.771V57.96H194.507V61.96ZM197.771 61.96C199.118 61.96 199.757 62.2363 200.031 62.4539C200.218 62.6018 200.444 62.8809 200.444 63.672H204.443C204.443 61.9885 203.891 60.4115 202.52 59.3221C201.236 58.3024 199.54 57.96 197.771 57.96V61.96ZM260.313 91V93H262.959L262.237 90.4543L260.313 91ZM247.897 47.224L249.821 46.6783L249.409 45.224H247.897V47.224ZM226.137 47.224V45.224H224.737L224.258 46.5397L226.137 47.224ZM221.849 59L219.97 58.3157L218.992 61H221.849V59ZM224.921 59L226.853 59.5177L227.528 57H224.921V59ZM216.345 91L214.413 90.4823L213.738 93H216.345V91ZM230.361 91V93H231.857L232.279 91.5654L230.361 91ZM232.153 84.92V82.92H230.657L230.235 84.3546L232.153 84.92ZM244.569 84.92L246.53 84.5278L246.209 82.92H244.569V84.92ZM245.785 91L243.824 91.3922L244.145 93H245.785V91ZM241.817 73.4V75.4H244.419L243.75 72.8859L241.817 73.4ZM234.969 73.4L233.034 72.8948L232.38 75.4H234.969V73.4ZM238.361 60.408L240.294 59.8939L238.343 52.5601L236.426 59.9028L238.361 60.408ZM262.237 90.4543L249.821 46.6783L245.973 47.7697L258.389 91.5457L262.237 90.4543ZM247.897 45.224H226.137V49.224H247.897V45.224ZM224.258 46.5397L219.97 58.3157L223.728 59.6843L228.016 47.9083L224.258 46.5397ZM221.849 61H224.921V57H221.849V61ZM222.989 58.4823L214.413 90.4823L218.277 91.5177L226.853 59.5177L222.989 58.4823ZM216.345 93H230.361V89H216.345V93ZM232.279 91.5654L234.071 85.4854L230.235 84.3546L228.443 90.4346L232.279 91.5654ZM232.153 86.92H244.569V82.92H232.153V86.92ZM242.608 85.3122L243.824 91.3922L247.746 90.6078L246.53 84.5278L242.608 85.3122ZM245.785 93H260.313V89H245.785V93ZM241.817 71.4H234.969V75.4H241.817V71.4ZM236.904 73.9052L240.296 60.9132L236.426 59.9028L233.034 72.8948L236.904 73.9052ZM236.428 60.9221L239.884 73.9141L243.75 72.8859L240.294 59.8939L236.428 60.9221ZM308.773 47.224L310.739 47.5947L311.186 45.224H308.773V47.224ZM295.333 47.224V45.224H293.654L293.364 46.8787L295.333 47.224ZM292.07 65.848L290.139 66.372L294.039 66.1933L292.07 65.848ZM287.014 47.224L288.944 46.7L288.543 45.224H287.014V47.224ZM275.622 47.224V45.224H274.075L273.686 46.7205L275.622 47.224ZM270.693 66.168L268.728 66.5398L272.629 66.6715L270.693 66.168ZM267.109 47.224L269.075 46.8522L268.767 45.224H267.109V47.224ZM253.67 47.224V45.224H251.226L251.709 47.6195L253.67 47.224ZM262.502 91L260.541 91.3955L260.865 93H262.502V91ZM276.902 91V93H278.46L278.841 91.4882L276.902 91ZM281.574 72.44L283.515 71.9581L279.634 71.9518L281.574 72.44ZM286.182 91L284.24 91.4819L284.617 93H286.182V91ZM300.518 91V93H302.176L302.483 91.3707L300.518 91ZM308.773 45.224H295.333V49.224H308.773V45.224ZM293.364 46.8787L290.1 65.5027L294.039 66.1933L297.303 47.5693L293.364 46.8787ZM294 65.324L288.944 46.7L285.083 47.748L290.139 66.372L294 65.324ZM287.014 45.224H275.622V49.224H287.014V45.224ZM273.686 46.7205L268.758 65.6645L272.629 66.6715L277.557 47.7275L273.686 46.7205ZM272.659 65.7962L269.075 46.8522L265.144 47.5958L268.728 66.5398L272.659 65.7962ZM267.109 45.224H253.67V49.224H267.109V45.224ZM251.709 47.6195L260.541 91.3955L264.462 90.6045L255.63 46.8285L251.709 47.6195ZM262.502 93H276.902V89H262.502V93ZM278.841 91.4882L283.513 72.9282L279.634 71.9518L274.962 90.5118L278.841 91.4882ZM279.632 72.9219L284.24 91.4819L288.123 90.5181L283.515 71.9581L279.632 72.9219ZM286.182 93H300.518V89H286.182V93ZM302.483 91.3707L310.739 47.5947L306.808 46.8533L298.552 90.6293L302.483 91.3707ZM333.473 77.368L335.423 77.8164L335.986 75.368H333.473V77.368ZM324.258 77.368H322.258V79.368H324.258V77.368ZM324.258 47.224H326.258V45.224H324.258V47.224ZM310.561 47.224V45.224H308.968L308.612 46.7771L310.561 47.224ZM307.553 60.344L305.604 59.8971L305.043 62.344H307.553V60.344ZM310.561 60.344H312.561V58.344H310.561V60.344ZM310.561 91H308.561V93H310.561V91ZM330.337 91V93H331.93L332.287 91.4484L330.337 91ZM333.473 75.368H324.258V79.368H333.473V75.368ZM326.258 77.368V47.224H322.258V77.368H326.258ZM324.258 45.224H310.561V49.224H324.258V45.224ZM308.612 46.7771L305.604 59.8971L309.503 60.7909L312.511 47.6709L308.612 46.7771ZM307.553 62.344H310.561V58.344H307.553V62.344ZM308.561 60.344V91H312.561V60.344H308.561ZM310.561 93H330.337V89H310.561V93ZM332.287 91.4484L335.423 77.8164L331.524 76.9196L328.388 90.5516L332.287 91.4484Z" fill="black"/>
</g>
<g filter="url(#filter2_d)">
<path d="M174.56 91.23H160.98L160.56 93.12H141.38L138.16 107.26H146.91L146.98 141H161.82V107.47H170.64L174.56 91.23ZM215.8 141L207.47 125.53C212.697 122.123 215.31 117.083 215.31 110.41C215.31 105.323 213.677 101.17 210.41 97.95C207.19 94.73 203.037 93.12 197.95 93.12H176.46L173.17 107.19H176.46V141H191.44V126.86L197.88 141H215.8ZM200.12 111.11C200.12 113.677 198.417 114.96 195.01 114.96H191.44V107.05H195.01C198.417 107.05 200.12 108.403 200.12 111.11ZM263.415 141L249.835 93.12H226.035L221.345 106H224.705L215.325 141H230.655L232.615 134.35H246.195L247.525 141H263.415ZM243.185 121.75H235.695L239.405 107.54L243.185 121.75ZM305.379 95.57L293.339 91.02L292.359 92.63C291.285 92.4433 290.259 92.3267 289.279 92.28C288.299 92.1867 287.365 92.14 286.479 92.14C279.385 92.14 273.505 95.1033 268.839 101.03C264.825 106.117 262.819 111.413 262.819 116.92C262.819 123.873 265.315 129.73 270.309 134.49C275.302 139.203 281.275 141.56 288.229 141.56C294.809 141.56 300.339 139.53 304.819 135.47L298.169 121.75C294.995 124.923 291.845 126.51 288.719 126.51C287.225 126.51 285.849 126.253 284.589 125.74C283.375 125.227 282.302 124.527 281.369 123.64C280.482 122.707 279.782 121.61 279.269 120.35C278.755 119.09 278.499 117.713 278.499 116.22C278.499 113.607 279.525 111.39 281.579 109.57C283.679 107.75 286.059 106.84 288.719 106.84C290.119 106.84 291.822 107.307 293.829 108.24C295.649 109.127 297.165 110.107 298.379 111.18L305.379 95.57ZM350.654 141L336.794 115.94L349.534 93.12H333.434L324.194 109.22V93.12H309.214L305.924 107.19H309.214V141H324.194V124.2L333.434 141H350.654Z" fill="white"/>
<path d="M174.56 91.23L176.504 91.6993L177.1 89.23H174.56V91.23ZM160.98 91.23V89.23H159.376L159.028 90.7961L160.98 91.23ZM160.56 93.12V95.12H162.164L162.512 93.5539L160.56 93.12ZM141.38 93.12V91.12H139.784L139.43 92.6759L141.38 93.12ZM138.16 107.26L136.21 106.816L135.653 109.26H138.16V107.26ZM146.91 107.26L148.91 107.256L148.906 105.26H146.91V107.26ZM146.98 141L144.98 141.004L144.984 143H146.98V141ZM161.82 141V143H163.82V141H161.82ZM161.82 107.47V105.47H159.82V107.47H161.82ZM170.64 107.47V109.47H172.215L172.584 107.939L170.64 107.47ZM174.56 89.23H160.98V93.23H174.56V89.23ZM159.028 90.7961L158.608 92.6861L162.512 93.5539L162.932 91.6639L159.028 90.7961ZM160.56 91.12H141.38V95.12H160.56V91.12ZM139.43 92.6759L136.21 106.816L140.11 107.704L143.33 93.5641L139.43 92.6759ZM138.16 109.26H146.91V105.26H138.16V109.26ZM144.91 107.264L144.98 141.004L148.98 140.996L148.91 107.256L144.91 107.264ZM146.98 143H161.82V139H146.98V143ZM163.82 141V107.47H159.82V141H163.82ZM161.82 109.47H170.64V105.47H161.82V109.47ZM172.584 107.939L176.504 91.6993L172.616 90.7607L168.696 107.001L172.584 107.939ZM215.8 141V143H219.148L217.561 140.052L215.8 141ZM207.47 125.53L206.378 123.854L204.837 124.859L205.709 126.478L207.47 125.53ZM210.41 97.95L208.996 99.3642L209.001 99.3693L209.006 99.3743L210.41 97.95ZM176.46 93.12V91.12H174.874L174.512 92.6646L176.46 93.12ZM173.17 107.19L171.222 106.735L170.648 109.19H173.17V107.19ZM176.46 107.19H178.46V105.19H176.46V107.19ZM176.46 141H174.46V143H176.46V141ZM191.44 141V143H193.44V141H191.44ZM191.44 126.86L193.26 126.031L189.44 126.86H191.44ZM197.88 141L196.06 141.829L196.593 143H197.88V141ZM191.44 114.96H189.44V116.96H191.44V114.96ZM191.44 107.05V105.05H189.44V107.05H191.44ZM217.561 140.052L209.231 124.582L205.709 126.478L214.039 141.948L217.561 140.052ZM208.562 127.206C214.401 123.4 217.31 117.703 217.31 110.41H213.31C213.31 116.463 210.993 120.847 206.378 123.854L208.562 127.206ZM217.31 110.41C217.31 104.852 215.505 100.164 211.814 96.5256L209.006 99.3743C211.848 102.176 213.31 105.795 213.31 110.41H217.31ZM211.824 96.5358C208.184 92.8953 203.499 91.12 197.95 91.12V95.12C202.574 95.12 206.196 96.5647 208.996 99.3642L211.824 96.5358ZM197.95 91.12H176.46V95.12H197.95V91.12ZM174.512 92.6646L171.222 106.735L175.117 107.645L178.407 93.5754L174.512 92.6646ZM173.17 109.19H176.46V105.19H173.17V109.19ZM174.46 107.19V141H178.46V107.19H174.46ZM176.46 143H191.44V139H176.46V143ZM193.44 141V126.86H189.44V141H193.44ZM189.62 127.689L196.06 141.829L199.7 140.171L193.26 126.031L189.62 127.689ZM197.88 143H215.8V139H197.88V143ZM198.12 111.11C198.12 111.909 197.885 112.215 197.639 112.4C197.287 112.666 196.519 112.96 195.01 112.96V116.96C196.907 116.96 198.695 116.613 200.046 115.595C201.503 114.497 202.12 112.878 202.12 111.11H198.12ZM195.01 112.96H191.44V116.96H195.01V112.96ZM193.44 114.96V107.05H189.44V114.96H193.44ZM191.44 109.05H195.01V105.05H191.44V109.05ZM195.01 109.05C196.502 109.05 197.251 109.355 197.598 109.631C197.857 109.837 198.12 110.203 198.12 111.11H202.12C202.12 109.31 201.531 107.647 200.086 106.499C198.73 105.421 196.924 105.05 195.01 105.05V109.05ZM263.415 141V143H266.061L265.339 140.454L263.415 141ZM249.835 93.12L251.759 92.5743L251.346 91.12H249.835V93.12ZM226.035 93.12V91.12H224.634L224.155 92.4357L226.035 93.12ZM221.345 106L219.465 105.316L218.488 108H221.345V106ZM224.705 106L226.636 106.518L227.311 104H224.705V106ZM215.325 141L213.393 140.482L212.718 143H215.325V141ZM230.655 141V143H232.15L232.573 141.565L230.655 141ZM232.615 134.35V132.35H231.119L230.696 133.785L232.615 134.35ZM246.195 134.35L248.156 133.958L247.834 132.35H246.195V134.35ZM247.525 141L245.563 141.392L245.885 143H247.525V141ZM243.185 121.75V123.75H245.786L245.117 121.236L243.185 121.75ZM235.695 121.75L233.759 121.245L233.105 123.75H235.695V121.75ZM239.405 107.54L241.337 107.026L239.387 99.6921L237.469 107.035L239.405 107.54ZM265.339 140.454L251.759 92.5743L247.911 93.6657L261.491 141.546L265.339 140.454ZM249.835 91.12H226.035V95.12H249.835V91.12ZM224.155 92.4357L219.465 105.316L223.224 106.684L227.914 93.8043L224.155 92.4357ZM221.345 108H224.705V104H221.345V108ZM222.773 105.482L213.393 140.482L217.256 141.518L226.636 106.518L222.773 105.482ZM215.325 143H230.655V139H215.325V143ZM232.573 141.565L234.533 134.915L230.696 133.785L228.736 140.435L232.573 141.565ZM232.615 136.35H246.195V132.35H232.615V136.35ZM244.233 134.742L245.563 141.392L249.486 140.608L248.156 133.958L244.233 134.742ZM247.525 143H263.415V139H247.525V143ZM243.185 119.75H235.695V123.75H243.185V119.75ZM237.63 122.255L241.34 108.045L237.469 107.035L233.759 121.245L237.63 122.255ZM237.472 108.054L241.252 122.264L245.117 121.236L241.337 107.026L237.472 108.054ZM305.379 95.57L307.203 96.3883L308.073 94.4501L306.086 93.6991L305.379 95.57ZM293.339 91.02L294.046 89.1491L292.493 88.5624L291.63 89.9801L293.339 91.02ZM292.359 92.63L292.016 94.6004L293.358 94.8339L294.067 93.6699L292.359 92.63ZM289.279 92.28L289.089 94.271L289.136 94.2755L289.183 94.2777L289.279 92.28ZM268.839 101.03L270.409 102.269L270.41 102.267L268.839 101.03ZM270.309 134.49L268.929 135.938L268.936 135.944L270.309 134.49ZM304.819 135.47L306.162 136.952L307.272 135.946L306.618 134.598L304.819 135.47ZM298.169 121.75L299.968 120.878L298.742 118.348L296.754 120.336L298.169 121.75ZM284.589 125.74L283.809 127.582L283.822 127.587L283.834 127.592L284.589 125.74ZM281.369 123.64L279.919 125.017L279.954 125.055L279.991 125.09L281.369 123.64ZM279.269 120.35L277.416 121.105L279.269 120.35ZM281.579 109.57L280.269 108.059L280.26 108.066L280.252 108.073L281.579 109.57ZM293.829 108.24L294.704 106.442L294.688 106.434L294.672 106.427L293.829 108.24ZM298.379 111.18L297.053 112.678L299.091 114.48L300.203 111.998L298.379 111.18ZM306.086 93.6991L294.046 89.1491L292.632 92.8909L304.672 97.4409L306.086 93.6991ZM291.63 89.9801L290.65 91.5901L294.067 93.6699L295.047 92.0599L291.63 89.9801ZM292.701 90.6596C291.555 90.4602 290.445 90.3333 289.374 90.2823L289.183 94.2777C290.072 94.32 291.016 94.4265 292.016 94.6004L292.701 90.6596ZM289.468 90.289C288.432 90.1903 287.435 90.14 286.479 90.14V94.14C287.295 94.14 288.165 94.183 289.089 94.271L289.468 90.289ZM286.479 90.14C278.729 90.14 272.285 93.4197 267.267 99.7927L270.41 102.267C274.725 96.7869 280.042 94.14 286.479 94.14V90.14ZM267.268 99.7912C263.028 105.166 260.819 110.888 260.819 116.92H264.819C264.819 111.939 266.623 107.067 270.409 102.269L267.268 99.7912ZM260.819 116.92C260.819 124.415 263.536 130.797 268.929 135.938L271.689 133.042C267.095 128.663 264.819 123.331 264.819 116.92H260.819ZM268.936 135.944C274.305 141.013 280.772 143.56 288.229 143.56V139.56C281.778 139.56 276.298 137.394 271.681 133.036L268.936 135.944ZM288.229 143.56C295.257 143.56 301.28 141.376 306.162 136.952L303.475 133.988C299.397 137.684 294.36 139.56 288.229 139.56V143.56ZM306.618 134.598L299.968 120.878L296.369 122.622L303.019 136.342L306.618 134.598ZM296.754 120.336C293.792 123.298 291.121 124.51 288.719 124.51V128.51C292.57 128.51 296.198 126.548 299.583 123.164L296.754 120.336ZM288.719 124.51C287.459 124.51 286.341 124.294 285.343 123.888L283.834 127.592C285.356 128.212 286.992 128.51 288.719 128.51V124.51ZM285.368 123.898C284.371 123.476 283.501 122.907 282.746 122.19L279.991 125.09C281.103 126.146 282.38 126.977 283.809 127.582L285.368 123.898ZM282.819 122.263C282.113 121.52 281.545 120.638 281.121 119.595L277.416 121.105C278.018 122.582 278.851 123.893 279.919 125.017L282.819 122.263ZM281.121 119.595C280.714 118.597 280.499 117.48 280.499 116.22H276.499C276.499 117.947 276.796 119.583 277.416 121.105L281.121 119.595ZM280.499 116.22C280.499 114.211 281.256 112.529 282.905 111.067L280.252 108.073C277.795 110.251 276.499 113.003 276.499 116.22H280.499ZM282.888 111.081C284.642 109.561 286.563 108.84 288.719 108.84V104.84C285.554 104.84 282.715 105.939 280.269 108.059L282.888 111.081ZM288.719 108.84C289.707 108.84 291.106 109.179 292.985 110.053L294.672 106.427C292.538 105.434 290.53 104.84 288.719 104.84V108.84ZM292.953 110.038C294.649 110.864 296.004 111.75 297.053 112.678L299.704 109.682C298.326 108.463 296.648 107.389 294.704 106.442L292.953 110.038ZM300.203 111.998L307.203 96.3883L303.554 94.7516L296.554 110.362L300.203 111.998ZM350.654 141V143H354.045L352.404 140.032L350.654 141ZM336.794 115.94L335.047 114.965L334.506 115.935L335.044 116.908L336.794 115.94ZM349.534 93.12L351.28 94.0949L352.941 91.12H349.534V93.12ZM333.434 93.12V91.12H332.276L331.699 92.1245L333.434 93.12ZM324.194 109.22H322.194V116.723L325.928 110.216L324.194 109.22ZM324.194 93.12H326.194V91.12H324.194V93.12ZM309.214 93.12V91.12H307.627L307.266 92.6646L309.214 93.12ZM305.924 107.19L303.976 106.735L303.402 109.19H305.924V107.19ZM309.214 107.19H311.214V105.19H309.214V107.19ZM309.214 141H307.214V143H309.214V141ZM324.194 141V143H326.194V141H324.194ZM324.194 124.2L325.946 123.236L322.194 124.2H324.194ZM333.434 141L331.681 141.964L332.251 143H333.434V141ZM352.404 140.032L338.544 114.972L335.044 116.908L348.904 141.968L352.404 140.032ZM338.54 116.915L351.28 94.0949L347.787 92.1451L335.047 114.965L338.54 116.915ZM349.534 91.12H333.434V95.12H349.534V91.12ZM331.699 92.1245L322.459 108.224L325.928 110.216L335.168 94.1155L331.699 92.1245ZM326.194 109.22V93.12H322.194V109.22H326.194ZM324.194 91.12H309.214V95.12H324.194V91.12ZM307.266 92.6646L303.976 106.735L307.871 107.645L311.161 93.5754L307.266 92.6646ZM305.924 109.19H309.214V105.19H305.924V109.19ZM307.214 107.19V141H311.214V107.19H307.214ZM309.214 143H324.194V139H309.214V143ZM326.194 141V124.2H322.194V141H326.194ZM322.441 125.164L331.681 141.964L335.186 140.036L325.946 123.236L322.441 125.164ZM333.434 143H350.654V139H333.434V143Z" fill="black"/>
</g>
<defs>
<filter id="filter0_f" x="55.9107" y="36.385" width="96.3882" height="96.3008" filterUnits="userSpaceOnUse" color-interpolation-filters="sRGB">
<feFlood flood-opacity="0" result="BackgroundImageFix"/>
<feBlend mode="normal" in="SourceGraphic" in2="BackgroundImageFix" result="shape"/>
<feGaussianBlur stdDeviation="2" result="effect1_foregroundBlur"/>
</filter>
<filter id="filter1_d" x="136.092" y="45.224" width="199.894" height="51.776" filterUnits="userSpaceOnUse" color-interpolation-filters="sRGB">
<feFlood flood-opacity="0" result="BackgroundImageFix"/>
<feColorMatrix in="SourceAlpha" type="matrix" values="0 0 0 0 0 0 0 0 0 0 0 0 0 0 0 0 0 0 127 0" result="hardAlpha"/>
<feOffset dy="4"/>
<feComposite in2="hardAlpha" operator="out"/>
<feColorMatrix type="matrix" values="0 0 0 0 0 0 0 0 0 0 0 0 0 0 0 0 0 0 1 0"/>
<feBlend mode="normal" in2="BackgroundImageFix" result="effect1_dropShadow"/>
<feBlend mode="normal" in="SourceGraphic" in2="effect1_dropShadow" result="shape"/>
</filter>
<filter id="filter2_d" x="135.653" y="88.5624" width="218.392" height="58.9976" filterUnits="userSpaceOnUse" color-interpolation-filters="sRGB">
<feFlood flood-opacity="0" result="BackgroundImageFix"/>
<feColorMatrix in="SourceAlpha" type="matrix" values="0 0 0 0 0 0 0 0 0 0 0 0 0 0 0 0 0 0 127 0" result="hardAlpha"/>
<feOffset dy="4"/>
<feComposite in2="hardAlpha" operator="out"/>
<feColorMatrix type="matrix" values="0 0 0 0 0 0 0 0 0 0 0 0 0 0 0 0 0 0 1 0"/>
<feBlend mode="normal" in2="BackgroundImageFix" result="effect1_dropShadow"/>
<feBlend mode="normal" in="SourceGraphic" in2="effect1_dropShadow" result="shape"/>
</filter>
</defs>
</svg>
